<?xml version="1.0" standalone="no"?>
<!DOCTYPE svg PUBLIC "-//W3C//DTD SVG 20010904//EN"
 "http://www.w3.org/TR/2001/REC-SVG-20010904/DTD/svg10.dtd">
<svg version="1.0" xmlns="http://www.w3.org/2000/svg"
 width="512.000000pt" height="512.000000pt" viewBox="0 0 512.000000 512.000000"
 preserveAspectRatio="xMidYMid meet">
<metadata>
Created by potrace 1.14, written by Peter Selinger 2001-2017
</metadata>
<g transform="translate(0.000000,512.000000) scale(0.100000,-0.100000)"
fill="#000000" stroke="none">
<path d="M99 4812 c-8 -9 -15 -21 -16 -26 -1 -5 -6 -12 -13 -16 -32 -20 -46
-281 -25 -480 3 -30 7 -68 9 -85 11 -105 19 -161 25 -165 3 -3 6 -16 6 -30 0
-14 3 -38 7 -55 5 -16 11 -52 13 -79 3 -27 10 -55 16 -63 7 -7 9 -13 6 -13 -3
0 1 -26 8 -58 8 -33 16 -70 19 -83 2 -13 14 -60 26 -104 12 -44 23 -87 25 -95
2 -8 4 -15 5 -15 3 0 12 -39 13 -57 1 -10 6 -18 11 -18 5 0 6 -3 3 -7 -4 -3
-2 -12 4 -20 6 -7 8 -13 4 -13 -4 0 -2 -7 5 -15 7 -9 10 -18 7 -22 -4 -3 -2
-12 3 -19 6 -6 12 -20 14 -30 3 -11 10 -32 17 -49 7 -16 13 -32 14 -35 20 -54
36 -89 72 -159 49 -95 76 -136 109 -167 13 -12 20 -24 18 -27 -3 -3 4 -10 15
-17 12 -6 19 -15 16 -21 -4 -5 1 -9 9 -9 13 0 12 -7 -6 -42 -12 -24 -25 -45
-28 -48 -10 -7 -140 -260 -140 -272 0 -5 36 -8 85 -6 50 2 87 -1 89 -7 3 -5 5
-5 5 2 1 8 10 9 31 3 16 -5 30 -5 30 -1 0 4 14 6 30 3 17 -2 30 -6 30 -8 0 -2
-12 -16 -27 -32 -50 -51 -108 -125 -105 -133 1 -5 -2 -9 -7 -9 -8 0 -41 -47
-149 -215 -20 -33 -130 -255 -126 -255 3 0 -3 -15 -13 -32 -43 -83 -84 -288
-58 -288 7 0 15 3 19 7 4 5 11 8 14 8 4 1 27 10 52 21 53 24 132 51 175 59 60
12 140 16 127 7 -8 -5 -13 -13 -13 -18 0 -5 -5 -27 -11 -49 -15 -52 -17 -63
-23 -104 -3 -18 -7 -37 -10 -41 -8 -13 -18 -148 -12 -163 5 -12 14 -11 54 8
55 26 244 92 286 99 15 3 35 7 45 10 84 24 234 22 347 -5 40 -10 46 -12 117
-43 20 -9 40 -16 46 -16 5 0 17 -11 26 -25 9 -14 14 -25 10 -25 -4 0 -1 -6 5
-14 7 -8 13 -23 16 -34 7 -38 86 -187 151 -285 75 -112 261 -307 294 -307 6 0
10 -4 10 -8 0 -9 180 -119 186 -115 2 1 28 -9 57 -22 71 -31 134 -49 195 -57
12 -1 22 -5 22 -8 0 -3 15 -6 33 -7 199 -10 206 -9 347 12 49 7 143 31 175 45
64 26 223 108 235 120 15 15 88 68 108 79 12 7 20 16 17 22 -4 5 -1 9 6 9 19
0 132 126 208 232 51 71 143 243 134 251 -3 4 -1 7 6 7 7 0 9 4 6 10 -3 5 -2
10 3 10 4 0 16 25 26 55 19 62 52 90 145 125 161 62 414 32 656 -76 22 -10 42
-18 45 -19 3 -1 22 -9 42 -18 21 -10 39 -17 42 -17 5 0 0 134 -8 202 -3 26
-14 75 -26 109 -11 34 -20 66 -20 71 0 4 18 7 40 6 22 -1 40 -6 40 -12 0 -6 5
-4 10 4 5 8 10 10 10 5 0 -6 9 -11 21 -12 29 -2 146 -42 192 -65 20 -10 37
-15 37 -11 0 5 4 2 9 -6 13 -20 30 -5 26 22 -3 12 -6 39 -9 59 -2 21 -7 42
-11 48 -4 6 -8 27 -9 48 -2 20 -13 58 -25 84 -11 26 -21 50 -21 53 0 12 -105
220 -112 223 -5 2 -8 9 -8 16 0 6 -7 21 -15 31 -8 11 -38 56 -66 100 -53 82
-133 188 -182 239 -15 16 -26 30 -24 32 8 9 168 8 171 -1 3 -7 5 -7 5 0 1 6
27 9 61 8 33 -1 60 1 60 5 0 4 -29 61 -65 127 -36 66 -68 128 -71 138 -3 9
-10 17 -15 17 -5 0 -9 6 -9 14 0 8 -6 21 -12 28 -21 22 -19 35 12 58 17 13 30
29 30 36 0 8 4 14 9 14 18 0 171 264 171 294 0 3 5 17 11 33 6 15 10 28 9 28
-1 0 10 26 24 58 14 31 23 57 20 57 -4 0 -1 7 6 15 7 8 10 15 7 15 -4 0 1 19
9 43 9 23 17 49 19 57 2 8 4 15 5 15 1 0 3 9 5 20 2 11 11 47 20 80 10 33 19
67 20 75 2 8 4 16 5 18 2 1 4 11 5 22 1 11 4 22 5 25 4 8 13 49 24 105 2 8 6
26 9 40 4 14 9 36 11 50 2 14 9 53 15 87 6 34 11 65 10 70 -1 4 0 10 1 13 5
14 13 62 25 150 24 187 25 427 2 518 -17 64 -47 104 -81 110 -20 4 -153 -24
-201 -42 -54 -20 -104 -40 -142 -57 -24 -11 -45 -19 -48 -19 -14 0 -340 -162
-343 -170 -2 -6 -10 -10 -17 -10 -8 0 -41 -16 -74 -35 -32 -19 -64 -35 -70
-35 -6 0 -11 -4 -11 -10 0 -5 -7 -10 -15 -10 -8 0 -15 -4 -15 -10 0 -5 -3 -9
-7 -8 -16 5 -422 -255 -436 -279 -4 -7 -13 -13 -18 -13 -18 0 -137 -99 -234
-195 l-62 -60 -59 12 c-32 6 -79 14 -104 17 -25 3 -65 9 -90 12 -76 9 -139 13
-306 18 -89 3 -166 6 -170 7 -5 1 -11 1 -14 0 -17 -7 -102 -5 -106 1 -3 5 -10
5 -16 1 -7 -3 -50 -8 -97 -9 -173 -7 -322 -23 -446 -48 l-60 -12 -50 50 c-77
77 -133 126 -145 126 -5 0 -10 3 -10 8 0 11 -132 109 -269 199 -70 45 -132 87
-138 93 -7 6 -13 7 -13 3 0 -4 -4 -3 -8 3 -4 6 -26 21 -49 33 -23 11 -45 25
-48 31 -4 6 -11 8 -16 5 -5 -4 -9 -1 -9 5 0 6 -4 9 -9 6 -5 -4 -11 -3 -13 2
-5 13 -95 62 -102 55 -3 -3 -6 -2 -6 4 0 15 -393 209 -518 255 -32 11 -63 25
-69 31 -7 5 -13 7 -13 3 0 -3 -17 0 -37 8 -92 35 -183 42 -204 18z"/>
</g>
</svg>
